<svg id="Layer_1" enable-background="new 0 0 512 512" height="512" viewBox="0 0 512 512" width="512" xmlns="http://www.w3.org/2000/svg"><g><path d="m24.572 347.569h462.855c8.785-25.235 13.574-52.342 13.574-80.571 0-135.311-109.691-245.002-245.002-245.002s-245.001 109.691-245.001 245.002c0 28.229 4.79 55.335 13.574 80.571z" fill="#4fabf7"/><path d="m24.572 79.25v268.319c8.353 23.994 20.332 46.29 35.279 66.232l40.173 42.118c42.369 35.026 96.709 56.081 155.976 56.081 62.326 0 119.206-23.281 162.44-61.613l34.377-37.491c14.634-19.712 26.383-41.694 34.61-65.327v-268.319z" fill="#e9efff"/><path d="m24.572 347.569c8.353 23.994 20.332 46.29 35.279 66.232l40.173 42.118c26.379 21.808 57.401 38.196 91.363 47.462v-133.208c-34.975-7.808-27-42.83-27-42.83-4.139-4.139 0-8.343 0-8.343s6.889-14.731 6.889-25.132 11.038-12.674 11.038-12.674c-14.548-28.62 13.129-41.295 13.129-41.295-21.085-9.249-13.129-28.058-13.129-28.058l-11.389-29.804c-19.77 0-17.49-17.408-17.49-17.408-44.593-6.352-33.513-50.111-33.513-50.111-21.439-12.13-8.776-33.268-8.776-33.268-1.286-.613-2.414-1.287-3.429-2h-83.145z" fill="#d3dcfb"/><path d="m138.927 51.47c0 16.447-13.333 29.78-29.78 29.78h378.28v-29.78z" fill="#d3dcfb"/><path d="m24.573 51.47v29.78h86.575c16.447 0 29.78-13.333 29.78-29.78z" fill="#4fabf7"/><path d="m103.017 53.25c-.84-.579-1.554-1.175-2.175-1.78h-76.27v29.78h86.575c-17.964-8.564-8.13-28-8.13-28z" fill="#1886ea"/><path d="m470.385 0h-428.77c-9.412 0-17.043 7.63-17.043 17.043v36.207h462.855v-36.207c0-9.413-7.63-17.043-17.042-17.043z" fill="#3c58a0"/><path d="m100.696 0h-59.08c-9.412 0-17.043 7.63-17.043 17.043v36.207h78.445c-10.011-6.898-3.439-16.123-3.439-16.123s7.738-13.267 0-21.004c-7.738-7.738 1.117-16.123 1.117-16.123z" fill="#2a428c"/><circle cx="68.732" cy="26.625" fill="#ff4155" r="10.502"/><circle cx="99.578" cy="26.625" fill="#ffdd40" r="10.502"/><circle cx="130.425" cy="26.625" fill="#4ce088" r="10.502"/><g><path d="m393.002 34.125h-221.552c-4.142 0-7.5-3.357-7.5-7.5s3.358-7.5 7.5-7.5h221.552c4.142 0 7.5 3.357 7.5 7.5s-3.358 7.5-7.5 7.5z" fill="#1c2e7a"/></g><g><path d="m447.05 34.125h-19.119c-4.142 0-7.5-3.357-7.5-7.5s3.358-7.5 7.5-7.5h19.119c4.142 0 7.5 3.357 7.5 7.5s-3.358 7.5-7.5 7.5z" fill="#1c2e7a"/></g><path d="m298.406 114.518h-232.184c-3.93 0-7.115 3.186-7.115 7.115v161.561h246.415v-161.561c0-3.93-3.186-7.115-7.116-7.115z" fill="#ff4155"/><path d="m66.222 114.518c-3.93 0-7.115 3.186-7.115 7.115v161.561h118.375c2.512-1.519 4.832-2 4.832-2-14.548-28.62 13.129-41.295 13.129-41.295-21.085-9.249-13.129-28.058-13.129-28.058l-11.389-29.804c-19.77 0-17.49-17.408-17.49-17.408-44.593-6.352-33.513-50.111-33.513-50.111z" fill="#e80054"/><path d="m59.107 281.194v39.034c0 3.93 3.186 7.115 7.115 7.115h232.184c3.93 0 7.115-3.186 7.115-7.115v-39.034z" fill="#3c58a0"/><path d="m59.107 320.228c0 3.93 3.186 7.116 7.115 7.116h98.165c-4.139-4.139 0-8.343 0-8.343s6.889-14.731 6.889-25.132 11.038-12.674 11.038-12.674h-123.207z" fill="#2a428c"/><path d="m408.888 184.568c0-3.904 3.165-7.068 7.068-7.068h36.937v-55.867c0-3.93-3.186-7.115-7.115-7.115h-99.873c-3.93 0-7.115 3.186-7.115 7.115v75.548c0 3.93 3.186 7.115 7.115 7.115h62.983z" fill="#ffdd40"/><path d="m408.888 307.615c0-3.904 3.165-7.068 7.068-7.068h36.937v-55.867c0-3.93-3.186-7.115-7.115-7.115h-99.873c-3.93 0-7.115 3.186-7.115 7.115v75.548c0 3.93 3.186 7.115 7.115 7.115h62.983z" fill="#73c3f9"/><path d="m452.893 412.813v-45.086c0-3.93-3.186-7.116-7.115-7.116h-99.873c-3.93 0-7.115 3.186-7.115 7.116v75.548c0 3.93 3.186 7.115 7.115 7.115h62.983v-19.728c0-3.904 3.165-7.068 7.068-7.068h28.464c2.922-3.512 5.747-7.107 8.473-10.781z" fill="#816ae2"/><path d="m386.898 197.182v-75.549c0-3.93 3.186-7.115 7.115-7.115h-48.109c-3.93 0-7.115 3.186-7.115 7.115v75.549c0 3.93 3.186 7.115 7.115 7.115h48.109c-3.929 0-7.115-3.186-7.115-7.115z" fill="#ffb332"/><path d="m386.898 320.228v-75.548c0-3.93 3.186-7.116 7.115-7.116h-48.109c-3.93 0-7.115 3.186-7.115 7.116v75.548c0 3.93 3.186 7.116 7.115 7.116h48.109c-3.929 0-7.115-3.186-7.115-7.116z" fill="#4fabf7"/><path d="m386.898 443.275v-75.548c0-3.93 3.186-7.116 7.115-7.116h-48.109c-3.93 0-7.115 3.186-7.115 7.116v75.548c0 3.93 3.186 7.115 7.115 7.115h48.109c-3.929.001-7.115-3.185-7.115-7.115z" fill="#6550dd"/><g><path d="m245.387 385.173h-54c-4.142 0-7.5-3.357-7.5-7.5s3.358-7.5 7.5-7.5h54c4.142 0 7.5 3.357 7.5 7.5s-3.358 7.5-7.5 7.5z" fill="#3c58a0"/></g><g><path d="m281.387 414.75h-90c-4.142 0-7.5-3.357-7.5-7.5s3.358-7.5 7.5-7.5h90c4.142 0 7.5 3.357 7.5 7.5s-3.357 7.5-7.5 7.5z" fill="#bec8f7"/></g><g><path d="m281.387 444.327h-90c-4.142 0-7.5-3.357-7.5-7.5 0-4.142 3.358-7.5 7.5-7.5h90c4.142 0 7.5 3.358 7.5 7.5s-3.357 7.5-7.5 7.5z" fill="#bec8f7"/></g><g><path d="m101.702 311.769h-10.629c-4.142 0-7.5-3.357-7.5-7.5s3.358-7.5 7.5-7.5h10.629c4.142 0 7.5 3.357 7.5 7.5s-3.358 7.5-7.5 7.5z" fill="#1c2e7a"/></g><g><path d="m272.387 311.769h-107.999c-4.142 0-7.5-3.357-7.5-7.5s3.358-7.5 7.5-7.5h107.999c4.142 0 7.5 3.357 7.5 7.5s-3.357 7.5-7.5 7.5z" fill="#1c2e7a"/></g><g><path d="m164.388 311.769h-36.751c-4.142 0-7.5-3.357-7.5-7.5s3.358-7.5 7.5-7.5h36.751c4.142 0 7.5 3.357 7.5 7.5s-3.358 7.5-7.5 7.5z" fill="#ff4155"/></g><g><path d="m164.387 319c-4.142 0-7.5-3.357-7.5-7.5v-14.667c0-4.143 3.358-7.5 7.5-7.5s7.5 3.357 7.5 7.5v14.667c0 4.143-3.358 7.5-7.5 7.5z" fill="#ff7186"/></g><path d="m413.956 175.5c-3.904 0-7.068 3.164-7.068 7.068v21.729h38.89c3.93 0 7.115-3.186 7.115-7.115v-21.682z" fill="#ffe98d"/><path d="m413.956 298.547c-3.904 0-7.068 3.165-7.068 7.068v21.729h38.89c3.93 0 7.115-3.186 7.115-7.115v-21.681h-38.937z" fill="#9bd8f9"/><path d="m413.956 421.594c-3.904 0-7.068 3.164-7.068 7.068v21.728h11.55c9.966-8.834 19.208-18.464 27.623-28.797h-32.105z" fill="#9181f2"/><ellipse cx="182.314" cy="197.856" fill="#e9efff" rx="44.034" ry="44.034" transform="matrix(.234 -.972 .972 .234 -52.732 328.772)"/><path d="m182.314 211.841-11.389-29.804c-19.77 0-17.49-17.408-17.49-17.408-9.281 8.073-15.156 19.96-15.156 33.227 0 24.319 19.715 44.034 44.034 44.034 4.573 0 8.982-.698 13.129-1.991-21.083-9.249-13.128-28.058-13.128-28.058z" fill="#bec8f7"/><path d="m199.721 193.628-22.699-12.724c-3.231-1.811-7.217.524-7.217 4.228v25.448c0 3.704 3.986 6.039 7.217 4.228l22.699-12.724c3.303-1.852 3.303-6.605 0-8.456z" fill="#e80054"/><path d="m195.842 191.421-11.287-6.327c-1.607-.901-3.589.261-3.589 2.102v12.654c0 1.842 1.982 3.003 3.589 2.102l11.287-6.327c1.642-.92 1.642-3.284 0-4.204z" fill="#ff4155"/><path d="m110.747 353.861c-28.52 0-51.64 23.12-51.64 51.64 0 2.797.235 5.538.664 8.215 6.323 8.443 13.185 16.457 20.525 24.005l.001-.002 28.956 16.167c.498.016.995.035 1.496.035 20.523 0 38.485-13.991 38.485-13.991 8.18-9.138 13.155-21.201 13.155-34.428-.001-28.521-23.122-51.641-51.642-51.641z" fill="#ff4155"/><path d="m161.249 416.267c-19.314 9.533-32.85-4.438-32.85-4.438s-6.851-45.787-15.023-47.856c-5.808-1.47-5.766-6.98-5.256-10.046-27.299 1.368-49.013 23.935-49.013 51.574 0 2.797.235 5.538.664 8.215 6.323 8.443 13.185 16.457 20.525 24.005l.001-.002 28.956 16.167c.498.016.995.035 1.496.035 20.523 0 38.485-13.991 38.485-13.991 5.894-6.586 10.112-14.697 12.015-23.663z" fill="#e80054"/><g><path d="m96.94 437.954c3.939 3.059 8.801 4.721 13.807 4.721s9.868-1.661 13.807-4.721c1.828-1.42 3.733-3.169 5.572-5.226-1.061-.342-2.141-.656-3.247-.933-.67-.168-1.258-.571-1.638-1.106-1.752-2.471-2.237-6.291-2.332-9.061-1.229 1.431-2.518 2.628-3.75 3.585-4.941 3.837-11.891 3.832-16.826 0-1.232-.957-2.521-2.154-3.75-3.585-.098 2.832-.602 6.761-2.45 9.224-.315.42-.801.764-1.384.908-1.15.285-2.276.61-3.384.968 1.841 2.057 3.746 3.806 5.575 5.226z" fill="#fcad6d"/></g><path d="m110.072 428.061c-2.745-.134-5.456-1.077-7.737-2.849-1.232-.957-2.521-2.154-3.75-3.585-.098 2.832-.602 6.761-2.45 9.224-.315.42-.801.764-1.384.908-1.15.285-2.276.61-3.384.967 1.84 2.057 3.744 3.806 5.573 5.227 2.502 1.943 5.378 3.317 8.425 4.064 3.185-4.733 4.33-10.078 4.707-13.956z" fill="#fd995b"/><path d="m140.452 437.293c-3.537-1.995-7.19-3.616-11.128-4.813-1.809 2.055-3.693 3.785-5.497 5.186-3.732 2.898-8.337 4.472-13.08 4.472s-9.348-1.574-13.08-4.472c-1.804-1.401-3.688-3.131-5.496-5.186-3.926 1.196-7.602 2.824-11.128 4.813-.271.152-.515.293-.747.426 6.276 6.458 12.892 12.582 19.843 18.32 3.425.716 6.971 1.103 10.609 1.103 15.293 0 29.031-6.65 38.487-17.213-1.372-.426-2.876-.721-4.527-.856-1.571-.129-2.406-.737-4.256-1.78z" fill="#3c58a0"/><path d="m105.695 441.526c-2.904-.706-5.645-2.01-8.028-3.86-1.804-1.401-3.688-3.131-5.496-5.186-3.926 1.196-7.602 2.824-11.128 4.813-.271.152-.515.293-.747.426 4.406 4.535 8.991 8.894 13.731 13.081 5.572-2.056 9.255-5.488 11.668-9.274z" fill="#2a428c"/><g><g><path d="m106.679 364.08c-12.216 1.664-13.377 8.59-13.382 11.131-.001.533-.296 1.027-.776 1.26-6.354 3.091-2.928 17.989-2.928 17.989.638.043 1.595.59 2.093.831.122-.759.321-1.507.602-2.229.214-.551.482-1.107.817-1.632.581-.912.846-1.987.767-3.062-.228-3.108-.408-8.943 3.695-10.789 3.475-1.564 7.739-.658 10.457.246 1.766.587 3.678.587 5.444 0 2.719-.904 6.982-1.81 10.458-.246 4.091 1.841 3.923 7.646 3.697 10.762-.078 1.083.179 2.17.765 3.089.346.542.62 1.117.838 1.685.271.706.463 1.435.582 2.176.628-.304 1.814-.925 2.582-.816.094-3.258.395-6.769.395-6.769 3.62-17.73-12.953-25.418-26.106-23.626z" fill="#2a428c"/><path d="m106.679 364.08c-12.216 1.664-13.377 8.59-13.382 11.131-.001.533-.296 1.027-.776 1.26-6.354 3.091-2.928 17.989-2.928 17.989.638.043 1.595.59 2.093.831.122-.759.321-1.507.602-2.229.214-.551.482-1.107.817-1.632.581-.912.846-1.987.767-3.062-.228-3.108-.408-8.943 3.695-10.789 3.475-1.564 7.739-.658 10.457.246.744.247 1.514.384 2.288.423-.119-.203-.245-.405-.387-.605-5.241-7.366 2.044-12.733 3.45-13.671-2.254-.223-4.521-.188-6.696.108z" fill="#1c2e7a"/></g><path d="m133.474 394.898c-.951-.872-2.846-.43-3.666.104.18 1.118.19 2.262.035 3.391l-.967 7.043c0 .568-.018 1.125-.051 1.672 2.358.711 3.529-1.406 3.727-2.858.085-.625.224-1.242.416-1.843.627-1.959 2.89-5.324.506-7.509z" fill="#fcad6d"/><path d="m88.021 394.898c.951-.872 2.847-.43 3.666.104-.18 1.118-.19 2.262-.035 3.391l.967 7.043c0 .568.018 1.125.051 1.672-2.358.711-3.529-1.406-3.727-2.858-.085-.625-.224-1.242-.416-1.843-.627-1.959-2.89-5.324-.506-7.509z" fill="#fd995b"/><path d="m129.515 392.827c-.218-.568-.492-1.143-.838-1.685-.586-.919-.843-2.005-.765-3.089.226-3.116.105-9.211-3.986-11.051-3.475-1.564-7.738-.658-10.457.246-1.766.587-3.679.587-5.445 0-2.719-.904-6.982-1.809-10.457-.246-4.102 1.846-4.212 7.97-3.984 11.078.079 1.075-.186 2.151-.767 3.062-.335.525-.603 1.082-.817 1.632-.695 1.786-.898 3.722-.637 5.618l.967 7.044c0 10.127 5.406 17.011 10.005 20.581 2.4 1.864 5.362 2.876 8.413 2.876s6.013-1.013 8.413-2.876c4.598-3.571 10.004-10.454 10.004-20.581l.967-7.043c.258-1.877.063-3.795-.616-5.566z" fill="#f9ba8f"/><g><path d="m115.764 426.017c-4.598-3.571-10.004-10.454-10.004-20.581l-.967-7.044c-.26-1.896-.058-3.833.637-5.618.214-.55.482-1.106.817-1.632.581-.912.846-1.987.767-3.062-.206-2.81-.135-8.086 2.912-10.435-.643-.061-1.282-.191-1.901-.397-2.719-.904-6.982-1.809-10.457-.246-4.102 1.846-4.212 7.97-3.984 11.078.079 1.075-.186 2.151-.767 3.062-.335.525-.603 1.082-.817 1.632-.695 1.786-.898 3.722-.637 5.618l.967 7.044c0 10.127 5.406 17.011 10.005 20.581 2.4 1.864 5.362 2.876 8.413 2.876 2.366 0 4.677-.611 6.715-1.754-.591-.33-1.16-.703-1.699-1.122z" fill="#fcad6d"/></g></g><circle cx="145.827" cy="368.836" fill="#73c3f9" r="17.002"/><circle cx="149.234" cy="366.979" fill="#9bd8f9" r="7.023"/></g></svg>