<svg height="512" viewBox="0 0 64 64" width="512" xmlns="http://www.w3.org/2000/svg"><g id="computer-website-graph-digital-data_analytics" data-name="computer-website-graph-digital-data analytics"><path d="m5 16h54a2 2 0 0 1 2 2v28a0 0 0 0 1 0 0h-58a0 0 0 0 1 0 0v-28a2 2 0 0 1 2-2z" fill="#2488ff"/><path d="m22 57h20v4h-20z" fill="#e8e5fb"/><path d="m29 52h6v5h-6z" fill="#898890"/><path d="m29 3h32v28h-32z" fill="#64c1f7"/><path d="m36 20h4v7h-4z" fill="#f6cc4f"/><path d="m43 17h4v10h-4z" fill="#f6cc4f"/><path d="m50 13h4v14h-4z" fill="#f6cc4f"/><path d="m22 34a7 7 0 1 1 -7-7v7z" fill="#dd5528"/><path d="m25 31a7 7 0 0 0 -7-7v7z" fill="#f6cc4f"/><path d="m29 3h32v6h-32z" fill="#b9b1f1"/><path d="m3 46h58a0 0 0 0 1 0 0v4a2 2 0 0 1 -2 2h-54a2 2 0 0 1 -2-2v-4a0 0 0 0 1 0 0z" fill="#e8e5fb"/><path d="m32 5h2v2h-2z" fill="#ec455a"/><path d="m36 5h2v2h-2z" fill="#f6cc4f"/><path d="m40 5h2v2h-2z" fill="#64c37d"/><g fill="#1a6fb0"><path d="m29 35h8v2h-8z"/><path d="m41 35h16v2h-16z"/><path d="m29 39h12v2h-12z"/><path d="m44 39h13v2h-13z"/></g><path d="m7 20h3v-2h-4a1 1 0 0 0 -1 1v4h2z" fill="#57a4ff"/><path d="m33 26h24v2h-24z" fill="#f3ac3c"/><path d="m29 52h6v2h-6z" fill="#787680"/></g></svg>