<svg height="512" viewBox="0 0 64 64" width="512" xmlns="http://www.w3.org/2000/svg"><g id="Fill_Outline" data-name="Fill Outline"><path d="m38.21 13.29h8v21h-8z" fill="#e59730" transform="matrix(.707 .707 -.707 .707 29.18 -22.88)"/><path d="m59.54 10.71-4.95 4.95a3 3 0 0 1 -4.25-4.25l4.95-4.95a5 5 0 0 0 -7.07 0l-2.12 2.13a8 8 0 1 0 11.31 11.31l2.13-2.12a5 5 0 0 0 0-7.07z" fill="#f9e109"/><path d="m60.54 13.78-2.13 2.12a8 8 0 0 1 -13.65-5.53 8 8 0 0 0 12.65 9.53l2.13-2.12a5 5 0 0 0 1.37-4.46c-.12.15-.23.31-.37.46z" fill="#fcbc04"/><path d="m28.33 47a9.23 9.23 0 0 0 -.09-1.18l3.41-2-3-5.2-3.15 1.85a9 9 0 0 0 -3.17-1.95v-3.52h-6v3.52a9.07 9.07 0 0 0 -2.85 1.64l-3.05-1.76-3 5.2 3.05 1.76a8.85 8.85 0 0 0 -.15 1.64 9 9 0 0 0 .25 2.09l-3.58 2.06 3 5.2 3.85-2.22a8.89 8.89 0 0 0 2.48 1.35v3.52h6v-3.52a9.13 9.13 0 0 0 2.84-1.64l3 1.76 3-5.2-3-1.76a8.85 8.85 0 0 0 .16-1.64zm-9 4a4 4 0 1 1 4-4 4 4 0 0 1 -4 4z" fill="#c4f236"/><path d="m26 52a15.06 15.06 0 0 1 -5.71-1.13 3.83 3.83 0 0 1 -1 .13 4 4 0 0 1 -3.94-3.4 14.92 14.92 0 0 1 -4.27-8.8l-.69-.4-3 5.2 3.05 1.76a8.85 8.85 0 0 0 -.11 1.64 9 9 0 0 0 .25 2.09l-3.58 2.06 3 5.2 3.85-2.22a8.89 8.89 0 0 0 2.48 1.35v3.52h6v-3.52a9.13 9.13 0 0 0 2.84-1.64l3 1.76 2.52-4.38a14.86 14.86 0 0 1 -4.69.78z" fill="#a1d51c"/><path d="m28.65 38.65-3.15 1.82a9 9 0 0 0 -3.17-1.95v-3.52h-6v3.52a9.51 9.51 0 0 0 -1.94 1 16.12 16.12 0 0 0 2 4.85 4 4 0 0 1 3-1.34 4 4 0 0 1 2.75 6.89 15.88 15.88 0 0 0 7.86 2.08h.3l.92-1.58-3-1.76a8.85 8.85 0 0 0 .11-1.66 9.23 9.23 0 0 0 -.09-1.18l3.41-2z" fill="#a1d51c"/><path d="m30 14h4v6h-4z" fill="#e59730"/><path d="m27 10h10v4h-10z" fill="#fcbc04"/><path d="m22.95 27.78-6.51-6.51 2.83-2.83 6.43 6.43z" fill="#f9e109"/><path d="m21.21 20.38-.85.9a2 2 0 0 1 -2.87 0l-.55-.55-.5.5 6.56 6.55 2.75-2.91z" fill="#fcbc04"/><circle cx="32" cy="34" fill="#57b7eb" r="16"/><circle cx="32" cy="34" fill="#fcbc04" r="2"/><path d="m37 44a16 16 0 0 1 -14.41-22.92 16 16 0 1 0 23.82 19.84 15.89 15.89 0 0 1 -9.41 3.08z" fill="#4891d3"/><circle cx="32" cy="34" fill="#4891d3" r="13"/><path d="m32 21a13 13 0 0 0 -10.56 5.44 13 13 0 0 1 18.12 18.12 13 13 0 0 0 -7.56-23.56z" fill="#2d72bc"/><path d="m21 28c0-.34 0-.67.06-1a13 13 0 0 0 19.75 16.54 16 16 0 0 1 -19.81-15.54z" fill="#2d72bc"/><path d="m29 10h8a0 0 0 0 1 0 0v2a0 0 0 0 1 0 0h-6a2 2 0 0 1 -2-2 0 0 0 0 1 0 0z" fill="#f9e109"/><g fill="#39519d"><path d="m35 17.28v-2.28h2a1 1 0 0 0 1-1v-4a1 1 0 0 0 -1-1h-27a1 1 0 0 0 0 2h26v2h-9a1 1 0 0 0 0 2h2v2.27a17 17 0 0 0 -6.7 2.79l-2.3-2.32a1 1 0 0 0 -1.41 0l-2.83 2.82a1 1 0 0 0 -.3.71 1 1 0 0 0 .3.71l2.32 2.32a16.94 16.94 0 0 0 -2.5 5.45 1 1 0 1 0 1.93.5 15.21 15.21 0 0 1 1.07-2.85l1.68 1a1 1 0 0 0 1-1.74l-1.69-1a14.76 14.76 0 0 1 4.11-4.11l1 1.69a1 1 0 0 0 1.74-1l-1-1.69a14.84 14.84 0 0 1 5.58-1.55v2a1 1 0 0 0 2 0v-1.95a14.91 14.91 0 0 1 5.61 1.5l-1 1.69a1 1 0 0 0 1.74 1l1-1.7a15.17 15.17 0 0 1 4.11 4.11l-1.7 1a1 1 0 0 0 1 1.74l1.69-1a14.91 14.91 0 0 1 1.55 5.61h-2a1 1 0 0 0 0 2h2a14.91 14.91 0 0 1 -1.5 5.61l-1.69-1a1 1 0 0 0 -1 1.74l1.7 1a15.17 15.17 0 0 1 -4.11 4.11l-1-1.7a1 1 0 0 0 -1.74 1l1 1.69a14.91 14.91 0 0 1 -5.66 1.55v-2a1 1 0 0 0 -2 0v2a14.84 14.84 0 0 1 -5.61-1.51l1-1.69a1 1 0 1 0 -1.74-1l-1 1.69a14.76 14.76 0 0 1 -4.11-4.11l1.69-1a1 1 0 0 0 -1-1.74l-1.68 1a15.21 15.21 0 0 1 -1.07-2.85 1 1 0 0 0 -1.21-.79 1 1 0 0 0 -.71 1.22 17 17 0 1 0 19.44-20.94zm-4-2.28h2v2.05c-.33 0-.66-.05-1-.05s-.67 0-1 0zm-13.14 6.27 1.41-1.41 1.45 1.44a17.17 17.17 0 0 0 -1.41 1.42z"/><path d="m20 34a1 1 0 0 0 -1-1h-7a1 1 0 0 0 0 2h7a1 1 0 0 0 1-1z"/><path d="m37.66 28.34a1 1 0 0 0 -1.42 0l-3 3a3 3 0 0 0 -2.56 0l-4.38-4.37a1 1 0 1 0 -1.41 1.41l4.37 4.37a3 3 0 0 0 -.26 1.25 3 3 0 0 0 6 0 3 3 0 0 0 -.3-1.29l3-2.95a1 1 0 0 0 -.04-1.42zm-4.95 6.37a1 1 0 0 1 -1.42 0 1 1 0 0 1 0-1.42 1 1 0 0 1 1.42 0 1 1 0 0 1 0 1.42z"/><path d="m29.76 52.92a1 1 0 0 0 -1.37.37l-.54.94-2.18-1.23a1 1 0 0 0 -1.15.11 8.17 8.17 0 0 1 -2.52 1.42 1 1 0 0 0 -.66.95v2.52h-4v-2.52a1 1 0 0 0 -.67-.95 7.81 7.81 0 0 1 -2.2-1.19 1 1 0 0 0 -1.11-.08l-3 1.72-2-3.46 2.72-1.52a1 1 0 0 0 .47-1.1 8 8 0 0 1 -.22-1.9 8.33 8.33 0 0 1 .13-1.46 1 1 0 0 0 -.48-1l-2.18-1.31 2-3.46 1.56.9a1 1 0 1 0 1-1.73l-2.43-1.4a1 1 0 0 0 -1.36.36l-3 5.2a1 1 0 0 0 .36 1.36l2.46 1.42a10.65 10.65 0 0 0 -.06 1.12 9.44 9.44 0 0 0 .13 1.58l-3 1.71a1 1 0 0 0 -.37 1.36l3 5.2a1 1 0 0 0 1.37.36l3.29-1.89a10.38 10.38 0 0 0 1.54.84v2.84a1 1 0 0 0 1 1h6a1 1 0 0 0 1-1v-2.84a9.8 9.8 0 0 0 1.97-1.16l2.46 1.42a1 1 0 0 0 1.36-.36l1.05-1.81a1 1 0 0 0 -.37-1.33z"/><path d="m16 44.55a1 1 0 0 0 -1.31.54 5.08 5.08 0 0 0 -.36 1.91 5 5 0 0 0 5 5 4.88 4.88 0 0 0 2-.44 1 1 0 1 0 -.81-1.82 3 3 0 0 1 -1.19.26 3 3 0 0 1 -3-3 2.87 2.87 0 0 1 .23-1.14 1 1 0 0 0 -.56-1.31z"/><path d="m26 4h16a1 1 0 0 0 0-2h-16a1 1 0 0 0 0 2z"/><path d="m3 32h7a1 1 0 0 0 0-2h-7a1 1 0 0 0 0 2z"/><path d="m7 25h4a1 1 0 0 0 0-2h-4a1 1 0 0 0 0 2z"/><path d="m9 16h8a1 1 0 0 0 0-2h-8a1 1 0 0 0 0 2z"/><path d="m10 60h-7a1 1 0 0 0 0 2h7a1 1 0 0 0 0-2z"/><path d="m3 38h3a1 1 0 0 0 0-2h-3a1 1 0 0 0 0 2z"/><path d="m52 29a1 1 0 0 0 0 2h5a1 1 0 0 0 0-2z"/><path d="m42 54h-8a1 1 0 0 0 0 2h8a1 1 0 0 0 0-2z"/><path d="m38 58h-6a1 1 0 0 0 0 2h6a1 1 0 0 0 0-2z"/><path d="m58 43h-8a1 1 0 0 0 0 2h8a1 1 0 0 0 0-2z"/><path d="m56 49h-8a1 1 0 0 0 0 2h8a1 1 0 0 0 0-2z"/><path d="m61 37h-7a1 1 0 0 0 0 2h7a1 1 0 0 0 0-2z"/><path d="m42.94 16-.62.62a1 1 0 0 0 0 1.42 1 1 0 0 0 1.41 0l1-1a1 1 0 0 0 .26-1 7 7 0 0 1 1.81-6.76l2.12-2.12a4 4 0 0 1 4.86-.62l-4.15 4.16a4 4 0 0 0 5.65 5.65l4.16-4.15a4 4 0 0 1 -.62 4.86l-2.12 2.12a7 7 0 0 1 -6.7 1.82 1 1 0 0 0 -1 .26l-1 1a1 1 0 1 0 1.42 1.41l.62-.62a9 9 0 0 0 8.11-2.45l2.12-2.12a6 6 0 0 0 0-8.49 1 1 0 0 0 -1.41 0l-4.98 5.01a2 2 0 0 1 -2.83-2.83l5-4.95a1 1 0 0 0 .29-.71 1 1 0 0 0 -.29-.7 6 6 0 0 0 -8.49 0l-2.17 2.07a9 9 0 0 0 -2.45 8.12z"/></g></g></svg>