<svg width="67" height="67" xmlns="http://www.w3.org/2000/svg" xmlns:xlink="http://www.w3.org/1999/xlink" overflow="hidden"><defs><clipPath id="clip0"><rect x="260" y="416" width="67" height="67"/></clipPath></defs><g clip-path="url(#clip0)" transform="translate(-260 -416)"><path d="M291.56 466.815C282.805 465.374 276.39 457.793 276.415 448.921 276.428 447.822 276.54 446.726 276.75 445.647L276.806 445.647 278.083 447.86C278.468 448.529 279.323 448.758 279.992 448.373 280.661 447.987 280.89 447.133 280.505 446.464L277.539 441.334C277.354 441.015 277.05 440.782 276.694 440.685 276.336 440.589 275.954 440.639 275.633 440.825L270.469 443.805C269.786 444.162 269.522 445.006 269.879 445.689 270.236 446.372 271.08 446.636 271.763 446.279 271.798 446.26 271.832 446.241 271.865 446.22L274 444.984C273.752 446.282 273.626 447.6 273.623 448.921 273.592 459.149 280.981 467.892 291.071 469.565L291.309 469.565C292.079 469.627 292.754 469.052 292.816 468.281 292.878 467.51 292.303 466.835 291.532 466.773Z" fill="#00B2BB"/><path d="M315.498 448.921C315.501 446.427 315.059 443.952 314.193 441.614 313.923 440.891 313.119 440.524 312.396 440.793 311.673 441.063 311.306 441.868 311.576 442.591 315.071 451.983 310.29 462.43 300.897 465.925 300.83 465.95 300.763 465.975 300.696 465.999L300.696 465.999 301.966 463.779C302.351 463.109 302.12 462.253 301.449 461.867 300.779 461.482 299.922 461.713 299.537 462.384L296.606 467.527C296.222 468.196 296.453 469.049 297.122 469.432 297.122 469.432 297.122 469.432 297.122 469.432L302.266 472.371C302.937 472.756 303.793 472.525 304.178 471.854 304.564 471.184 304.332 470.327 303.662 469.942L301.484 468.707C309.905 465.785 315.537 457.834 315.498 448.921Z" fill="#00B2BB"/><path d="M303.634 434.941C302.863 434.941 302.238 435.566 302.238 436.337 302.238 437.108 302.863 437.733 303.634 437.733L309.371 437.733C309.424 437.737 309.478 437.737 309.531 437.733 309.8 437.733 310.062 437.653 310.285 437.503L310.383 437.44 310.424 437.405 310.424 437.405 310.515 437.335C310.788 437.075 310.945 436.715 310.948 436.337L310.948 430.419C310.948 429.648 310.323 429.023 309.552 429.023 308.781 429.023 308.156 429.648 308.156 430.419L308.156 432.966 308.156 432.966C299.355 425.466 286.14 426.522 278.64 435.323 278.608 435.361 278.576 435.399 278.544 435.437 278.046 436.027 278.121 436.908 278.711 437.405 279.301 437.902 280.182 437.827 280.679 437.238 287.089 429.603 298.457 428.569 306.139 434.921Z" fill="#00B2BB"/></g></svg>