<?xml version="1.0" standalone="no"?>
<!DOCTYPE svg PUBLIC "-//W3C//DTD SVG 20010904//EN"
 "http://www.w3.org/TR/2001/REC-SVG-20010904/DTD/svg10.dtd">
<svg version="1.0" xmlns="http://www.w3.org/2000/svg"
 preserveAspectRatio="xMidYMid meet">
<metadata>
Created by potrace 1.16, written by Peter Selinger 2001-2019
</metadata>
<g transform="translate(0.000000,129.000000) scale(0.100000,-0.100000)"
fill="#000000" stroke="none">
<path d="M520 1049 c-124 -24 -244 -122 -303 -246 -29 -62 -32 -77 -32 -163 0
-115 19 -175 79 -258 94 -127 266 -194 418 -163 255 53 404 316 317 561 -34
96 -119 190 -214 234 -90 42 -172 53 -265 35z m225 -93 c229 -104 283 -403
103 -572 -57 -54 -84 -69 -153 -90 -210 -61 -427 93 -443 314 -19 266 254 458
493 348z"/>
<path d="M758 863 c4 -21 2 -25 -11 -20 -18 7 -47 -22 -47 -47 0 -30 -34 -14
-40 19 -4 24 -7 26 -12 13 -4 -10 -5 -24 -2 -32 6 -15 -19 -17 -32 -3 -4 4
-12 7 -18 7 -6 -1 0 -10 14 -22 l25 -21 -35 7 c-19 3 -96 9 -170 13 -127 6
-134 5 -121 -11 20 -24 99 -63 143 -71 24 -5 45 -2 65 8 31 16 118 26 129 14
4 -4 -3 -7 -15 -7 -32 0 -130 -102 -169 -177 -18 -35 -30 -63 -25 -63 4 0 32
12 62 27 67 35 145 104 172 152 l20 36 -6 -59 c-3 -33 -11 -66 -17 -73 -18
-23 -4 -109 28 -160 44 -71 54 -67 54 19 0 69 -13 178 -27 237 l-6 26 23 -28
c12 -15 25 -26 28 -23 2 3 -1 13 -9 22 -12 15 -11 16 9 10 29 -10 29 2 0 14
-22 8 -21 9 7 10 29 2 29 2 5 9 -16 4 -26 15 -28 30 -3 15 0 21 8 16 15 -9 50
23 50 48 0 14 5 18 20 14 12 -3 18 -1 14 5 -3 5 -16 7 -27 4 -28 -7 -47 11
-47 45 0 15 -4 30 -9 33 -4 3 -6 -6 -3 -21z"/>
</g>
</svg>
